<svg id="Layer_1" data-name="Layer 1" xmlns="http://www.w3.org/2000/svg" viewBox="0 0 268.09 308.28"><defs><style>.cls-1{fill:#3e5b81;}</style></defs><title>blått-hjerte</title><path class="cls-1" d="M308.93,90h14.8c.22.18.42.49.66.52,12.86,1.47,24.44,6.37,35.42,13,16.62,10,28.1,23.89,32.62,43.05.79,3.32,1.45,6.67,2.17,10v19.11c-.71,3.87-1.4,7.74-2.13,11.6-4.41,23.07-13.35,44.47-24.14,65.16-21.36,40.95-48.49,78-77.93,113.36-9.18,11-18.84,21.67-28.28,32.49a12.52,12.52,0,0,1-2.63-1.78c-11.51-13.09-23.29-26-34.38-39.41-27.13-32.87-52-67.31-72-105.12-11-20.8-20.09-42.34-24.54-65.6-.75-4-1.4-8-2.1-11.93V156a10.26,10.26,0,0,0,.66-1.88c1.78-12.64,6-24.3,14.41-34.07,12.59-14.64,28.77-23.43,47.3-28.17,2.42-.62,4.85-1.22,7.27-1.83h15.41c.32.19.62.52.95.56,14.68,1.85,27.35,8.1,38.5,17.6,3.33,2.83,6.36,6,9.59,9.1l1.89-2c11-11.8,24.14-20.1,40.05-23.67C304.68,91.08,306.8,90.53,308.93,90Z" transform="translate(-126.51 -90.01)"/></svg>