<svg id="Layer_1" data-name="Layer 1" xmlns="http://www.w3.org/2000/svg" viewBox="0 0 1428 1744"><defs><style>.cls-1{fill:#42e793;}</style></defs><title>oil-drum</title><path class="cls-1" d="M158,882V862a27.22,27.22,0,0,0,1-3.68c6.9-51.13,50-90.36,102.91-90.48,8.34,0,16.67,0,25,0H298.4V325.17h7.12q88,0,176,0c30.64,0,52.83-18.26,58.59-48.45,2.92-15.3.23-29.7-8.66-42.65-12.18-17.73-29.56-25.66-50.62-25.82-20.83-.17-41.65.25-62.48.27q-77.73.08-155.48-.06a94,94,0,0,1-19.76-1.8c-41.7-9.22-69-34.3-81.23-75.3-1.69-5.66-2.59-11.56-3.86-17.35V95c1.35-6.38,2.26-12.89,4.14-19.11,10.42-34.46,32.53-58.07,66.47-70.26C235.52,3.15,242.86,1.85,250,0H1493c3.67.75,7.33,1.55,11,2.23,38.51,7.2,72,41.32,79.09,80.53.75,4.12,1.92,8.16,2.9,12.24v19a12.92,12.92,0,0,0-.93,2.68c-5.68,44.85-37.85,80.78-82.22,89.24-15.81,3-32.4,1.88-48.64,2.59-2.6.12-5.21,0-8.08,0V767.84c2.56,0,4.84-.09,7.12,0,17,.74,34.27,0,51,2.59,36.24,5.57,70.88,40.14,78.5,76.22,1.14,5.43,2.16,10.89,3.24,16.34v19c-1.17,5.43-2.06,10.94-3.57,16.27q-15.48,54.43-69,73a90.9,90.9,0,0,1-31.22,4.91c-11.94-.16-23.89,0-36.06,0v559.31c7.91,0,15.55-.36,23.13.08,12.52.74,25.45.26,37.41,3.36,40.16,10.39,65.41,36.59,76.22,76.62,1.37,5.06,2.08,10.31,3.09,15.47v18a14.69,14.69,0,0,0-.9,2.72c-5.13,42.61-33.85,76.36-75.34,88.33-5.51,1.59-11.17,2.65-16.76,4H250c-4.11-1-8.26-1.79-12.33-2.9q-58.12-15.8-75.64-73.48c-1.84-6-2.71-12.4-4-18.62v-19a25.74,25.74,0,0,0,1-3.68c5-40.45,34.62-75.53,73.93-86.33,9.95-2.74,20.53-3.69,30.88-4.35,11.23-.73,22.53-.17,34.5-.17V1093H305c59.82,0,119.64.25,179.45-.1,33.94-.19,62.68-30,55.91-69.39-4.29-25-26.51-47.38-58.56-47.36q-110.22.08-220.44,0A91,91,0,0,1,232.56,972c-33.71-11-56.93-33-68.7-66.5C161.2,897.93,159.92,889.85,158,882ZM872,590.23c-1.24,1.51-1.84,2.3-2.5,3-52.2,57.8-101.18,118.15-144,183.33-21.41,32.61-41.05,66.24-55,102.86-8.17,21.5-14.84,43.5-13.41,66.78a250.13,250.13,0,0,0,5.86,40.57c21.44,93.48,98.73,156.5,187.92,165.94a201.43,201.43,0,0,0,59-2.54c46.31-8.82,85.84-30,118.12-64.22,34.81-36.94,54-81.06,57.81-131.61,1.75-22.92-1.75-45.27-9.52-67-12.81-35.82-31.17-68.78-51.47-100.72-34.36-54.1-73.67-104.52-115.17-153.26C897.53,619.07,885,605.05,872,590.23Z" transform="translate(-158 0)"/></svg>