<svg id="Layer_1" data-name="Layer 1" xmlns="http://www.w3.org/2000/svg" viewBox="0 0 437 437"><defs><style>.cls-1{fill:#ed6c4d;}.cls-2{fill:#293241;}</style></defs><title>Oljepartiet-logo</title><path class="cls-1" d="M31.5,268.35V232.52a12.38,12.38,0,0,0,.86-2.28c1.49-9.33,2.51-18.75,4.46-28,18-84.68,89.6-153.17,174.84-167.35,7-1.16,13.91-2.27,20.86-3.41h34.09a12.3,12.3,0,0,0,2.29.82c9.62,1.5,19.34,2.51,28.85,4.51C382.2,54.58,451,126.5,465.08,211.65c1.2,7.24,2.28,14.49,3.42,21.74v34.09a12.65,12.65,0,0,0-.86,2.28c-1.49,9.33-2.52,18.75-4.46,28-17.81,84.51-89.59,153.15-174.82,167.34-7.24,1.21-14.5,2.28-21.75,3.42H232.52a12.65,12.65,0,0,0-2.28-.86c-9.33-1.49-18.76-2.51-28-4.46C117.77,445.4,49.08,373.53,34.9,288.3,33.79,281.65,32.63,275,31.5,268.35ZM250.13,88.48c-1.22,1.89-2,2.93-2.62,4.06C228.3,128,208.67,163.19,190,198.93a517.62,517.62,0,0,0-34,79.86c-5.06,15.66-8.6,31.55-5.48,48.08,8,42.66,32.73,70.76,74.63,82.44,38.59,10.75,80.21-4.06,104.62-36.37,15.93-21.08,23.31-44.89,19.65-71.33-2.39-17.25-8.76-33.46-15.32-49.5-19.65-48.06-44.27-93.64-69.7-138.81C259.91,105.21,255.19,97.22,250.13,88.48Z" transform="translate(-31.5 -31.5)"/><path class="cls-2" d="M250.13,88.48c5.06,8.74,9.78,16.73,14.34,24.82,25.43,45.17,50,90.75,69.7,138.81,6.56,16,12.93,32.25,15.32,49.5,3.66,26.44-3.72,50.25-19.65,71.33-24.41,32.31-66,47.12-104.62,36.37-41.9-11.68-66.59-39.78-74.63-82.44-3.12-16.53.42-32.42,5.48-48.08a517.62,517.62,0,0,1,34-79.86c18.64-35.74,38.27-71,57.48-106.39C248.13,91.41,248.91,90.37,250.13,88.48Z" transform="translate(-31.5 -31.5)"/></svg>