<svg id="Capa_1" data-name="Capa 1" xmlns="http://www.w3.org/2000/svg" viewBox="0 0 463.81 512"><defs><style>.cls-1{fill:#ee6c4d;}</style></defs><title>taxes</title><path class="cls-1" d="M263,8.81V112.44l103.91.29Z" transform="translate(-24.09)"/><path class="cls-1" d="M202.79,384.5c0-92.77,80.09-165.71,172.68-156.9V142.88L263,142.56a30.15,30.15,0,0,1-30.08-30.12V0H54.21A30.16,30.16,0,0,0,24.09,30.12V481.88A30.16,30.16,0,0,0,54.21,512H267.84a157.5,157.5,0,0,1-65-127.5ZM159.58,96.94a15.06,15.06,0,0,1,7.66,19.87L116.92,230.29a15.06,15.06,0,0,1-27.54-12.22L139.71,104.6A15.06,15.06,0,0,1,159.58,96.94ZM87.91,103.4c13,0,23.67,11,23.67,24.53S101,152.45,87.91,152.45s-23.66-11-23.66-24.52S74.86,103.4,87.91,103.4Zm71.71,336.32H71.28a15.06,15.06,0,0,1,0-30.12h88.34a15.06,15.06,0,0,1,0,30.12ZM56.22,360.41a15.07,15.07,0,0,1,15.06-15.06h72.28a15.07,15.07,0,0,1,15.06,15.06c0,8.31-6.75,15.06-16.06,15.06H70.27C63,375.47,56.22,368.72,56.22,360.41Zm103.4-49.19H71.28a15.06,15.06,0,0,1,0-30.12h88.34a15.06,15.06,0,0,1,0,30.12Zm7.6-79.46c-13.05,0-23.66-11-23.66-24.52s10.61-24.53,23.66-24.53,23.67,11,23.67,24.53-10.62,24.52-23.67,24.52Z" transform="translate(-24.09)"/><path class="cls-1" d="M360.41,257a127.5,127.5,0,1,0,127.5,127.5A127.64,127.64,0,0,0,360.41,257Zm14.42,178.55a15,15,0,0,1-29.76,1.53A52.67,52.67,0,0,1,329,430.8a15.05,15.05,0,1,1,14.69-26.28c5.9,3.29,7.83,3.55,16.1,3.5,5.89,0,9.31-3.27,9.66-5.68.57-3.9-18-4.9-33.43-15.23-19.28-12.94-15-43.48,8.94-52.72a15,15,0,0,1,29.7-.88,44.46,44.46,0,0,1,9.18,3.95,15.22,15.22,0,1,1-15.19,26c-5-2.85-12.43-1.77-14.08-.27L374,370.41c35.1,10.61,32.66,53.53.85,65.14Z" transform="translate(-24.09)"/></svg>