<svg id="Capa_1" data-name="Capa 1" xmlns="http://www.w3.org/2000/svg" viewBox="0 0 512 480.03"><defs><style>.cls-1{fill:#ffc60b;}</style></defs><title>working-at-home</title><path class="cls-1" d="M360.8,213.48,373.71,136h20l24,120H448.3L420.71,118.08A15,15,0,0,0,406,106H378.71L390.8,33.48a15,15,0,0,0-29.59-4.92l-30,180c-1.62,9.73,5,15.92,12.34,17.21S359.15,223.42,360.8,213.48Z" transform="translate(0 -15.98)"/><path class="cls-1" d="M256,496h30a15,15,0,0,0,15-15V346a60,60,0,0,0-60-60H120a59.31,59.31,0,0,1-30-8.35V316a30,30,0,0,0,30,30H241V481A15,15,0,0,0,256,496Z" transform="translate(0 -15.98)"/><path class="cls-1" d="M120,436v30H105a15,15,0,0,0,0,30h60a15,15,0,0,0,0-30H150V436h31a30,30,0,0,0,0-60H60V331c0-151.8-30.3-214.13-31.59-216.71A15,15,0,1,0,1.59,127.73C1.88,128.3,30,186.23,30,331v60a45,45,0,0,0,45,45Z" transform="translate(0 -15.98)"/><path class="cls-1" d="M497,286H307.59a89.43,89.43,0,0,1,17.88,30H421V481a15,15,0,0,0,30,0V316h46a15,15,0,0,0,0-30Z" transform="translate(0 -15.98)"/><circle class="cls-1" cx="121" cy="60.04" r="45"/><path class="cls-1" d="M91,151v75a30,30,0,0,0,30,30H226a15,15,0,0,0,15-15,45,45,0,0,0-45-45H151V151a30,30,0,0,0-60,0Z" transform="translate(0 -15.98)"/></svg>